<svg xmlns="http://www.w3.org/2000/svg" viewBox="0 0 290 290" width="100%" height="100%"><rect width="290" height="290" fill="#FFFFFF"/><path d="M20,20h10v10h-10zM30,20h10v10h-10zM40,20h10v10h-10zM50,20h10v10h-10zM60,20h10v10h-10zM70,20h10v10h-10zM80,20h10v10h-10zM100,20h10v10h-10zM110,20h10v10h-10zM120,20h10v10h-10zM150,20h10v10h-10zM160,20h10v10h-10zM200,20h10v10h-10zM210,20h10v10h-10zM220,20h10v10h-10zM230,20h10v10h-10zM240,20h10v10h-10zM250,20h10v10h-10zM260,20h10v10h-10zM20,30h10v10h-10zM80,30h10v10h-10zM100,30h10v10h-10zM130,30h10v10h-10zM140,30h10v10h-10zM150,30h10v10h-10zM180,30h10v10h-10zM200,30h10v10h-10zM260,30h10v10h-10zM20,40h10v10h-10zM40,40h10v10h-10zM50,40h10v10h-10zM60,40h10v10h-10zM80,40h10v10h-10zM100,40h10v10h-10zM110,40h10v10h-10zM130,40h10v10h-10zM140,40h10v10h-10zM150,40h10v10h-10zM160,40h10v10h-10zM180,40h10v10h-10zM200,40h10v10h-10zM220,40h10v10h-10zM230,40h10v10h-10zM240,40h10v10h-10zM260,40h10v10h-10zM20,50h10v10h-10zM40,50h10v10h-10zM50,50h10v10h-10zM60,50h10v10h-10zM80,50h10v10h-10zM110,50h10v10h-10zM130,50h10v10h-10zM140,50h10v10h-10zM150,50h10v10h-10zM180,50h10v10h-10zM200,50h10v10h-10zM220,50h10v10h-10zM230,50h10v10h-10zM240,50h10v10h-10zM260,50h10v10h-10zM20,60h10v10h-10zM40,60h10v10h-10zM50,60h10v10h-10zM60,60h10v10h-10zM80,60h10v10h-10zM100,60h10v10h-10zM120,60h10v10h-10zM140,60h10v10h-10zM150,60h10v10h-10zM160,60h10v10h-10zM180,60h10v10h-10zM200,60h10v10h-10zM220,60h10v10h-10zM230,60h10v10h-10zM240,60h10v10h-10zM260,60h10v10h-10zM20,70h10v10h-10zM80,70h10v10h-10zM110,70h10v10h-10zM120,70h10v10h-10zM160,70h10v10h-10zM180,70h10v10h-10zM200,70h10v10h-10zM260,70h10v10h-10zM20,80h10v10h-10zM30,80h10v10h-10zM40,80h10v10h-10zM50,80h10v10h-10zM60,80h10v10h-10zM70,80h10v10h-10zM80,80h10v10h-10zM100,80h10v10h-10zM120,80h10v10h-10zM140,80h10v10h-10zM160,80h10v10h-10zM180,80h10v10h-10zM200,80h10v10h-10zM210,80h10v10h-10zM220,80h10v10h-10zM230,80h10v10h-10zM240,80h10v10h-10zM250,80h10v10h-10zM260,80h10v10h-10zM120,90h10v10h-10zM140,90h10v10h-10zM150,90h10v10h-10zM160,90h10v10h-10zM170,90h10v10h-10zM20,100h10v10h-10zM50,100h10v10h-10zM60,100h10v10h-10zM70,100h10v10h-10zM80,100h10v10h-10zM90,100h10v10h-10zM100,100h10v10h-10zM110,100h10v10h-10zM120,100h10v10h-10zM140,100h10v10h-10zM170,100h10v10h-10zM190,100h10v10h-10zM220,100h10v10h-10zM240,100h10v10h-10zM250,100h10v10h-10zM260,100h10v10h-10zM20,110h10v10h-10zM30,110h10v10h-10zM50,110h10v10h-10zM60,110h10v10h-10zM70,110h10v10h-10zM100,110h10v10h-10zM120,110h10v10h-10zM150,110h10v10h-10zM160,110h10v10h-10zM170,110h10v10h-10zM190,110h10v10h-10zM210,110h10v10h-10zM220,110h10v10h-10zM230,110h10v10h-10zM240,110h10v10h-10zM250,110h10v10h-10zM30,120h10v10h-10zM50,120h10v10h-10zM60,120h10v10h-10zM80,120h10v10h-10zM90,120h10v10h-10zM120,120h10v10h-10zM130,120h10v10h-10zM140,120h10v10h-10zM150,120h10v10h-10zM170,120h10v10h-10zM180,120h10v10h-10zM190,120h10v10h-10zM200,120h10v10h-10zM220,120h10v10h-10zM230,120h10v10h-10zM260,120h10v10h-10zM30,130h10v10h-10zM40,130h10v10h-10zM70,130h10v10h-10zM100,130h10v10h-10zM120,130h10v10h-10zM130,130h10v10h-10zM190,130h10v10h-10zM200,130h10v10h-10zM210,130h10v10h-10zM230,130h10v10h-10zM240,130h10v10h-10zM250,130h10v10h-10zM260,130h10v10h-10zM20,140h10v10h-10zM50,140h10v10h-10zM60,140h10v10h-10zM80,140h10v10h-10zM110,140h10v10h-10zM130,140h10v10h-10zM170,140h10v10h-10zM180,140h10v10h-10zM200,140h10v10h-10zM210,140h10v10h-10zM260,140h10v10h-10zM20,150h10v10h-10zM90,150h10v10h-10zM120,150h10v10h-10zM140,150h10v10h-10zM150,150h10v10h-10zM160,150h10v10h-10zM170,150h10v10h-10zM180,150h10v10h-10zM220,150h10v10h-10zM250,150h10v10h-10zM20,160h10v10h-10zM30,160h10v10h-10zM40,160h10v10h-10zM60,160h10v10h-10zM70,160h10v10h-10zM80,160h10v10h-10zM100,160h10v10h-10zM110,160h10v10h-10zM120,160h10v10h-10zM150,160h10v10h-10zM170,160h10v10h-10zM180,160h10v10h-10zM190,160h10v10h-10zM220,160h10v10h-10zM230,160h10v10h-10zM240,160h10v10h-10zM250,160h10v10h-10zM260,160h10v10h-10zM20,170h10v10h-10zM70,170h10v10h-10zM90,170h10v10h-10zM100,170h10v10h-10zM120,170h10v10h-10zM140,170h10v10h-10zM170,170h10v10h-10zM190,170h10v10h-10zM210,170h10v10h-10zM230,170h10v10h-10zM240,170h10v10h-10zM260,170h10v10h-10zM20,180h10v10h-10zM40,180h10v10h-10zM80,180h10v10h-10zM100,180h10v10h-10zM120,180h10v10h-10zM130,180h10v10h-10zM140,180h10v10h-10zM150,180h10v10h-10zM170,180h10v10h-10zM180,180h10v10h-10zM190,180h10v10h-10zM200,180h10v10h-10zM210,180h10v10h-10zM220,180h10v10h-10zM240,180h10v10h-10zM250,180h10v10h-10zM100,190h10v10h-10zM110,190h10v10h-10zM120,190h10v10h-10zM130,190h10v10h-10zM160,190h10v10h-10zM170,190h10v10h-10zM180,190h10v10h-10zM220,190h10v10h-10zM240,190h10v10h-10zM250,190h10v10h-10zM20,200h10v10h-10zM30,200h10v10h-10zM40,200h10v10h-10zM50,200h10v10h-10zM60,200h10v10h-10zM70,200h10v10h-10zM80,200h10v10h-10zM100,200h10v10h-10zM140,200h10v10h-10zM150,200h10v10h-10zM160,200h10v10h-10zM180,200h10v10h-10zM200,200h10v10h-10zM220,200h10v10h-10zM260,200h10v10h-10zM20,210h10v10h-10zM80,210h10v10h-10zM100,210h10v10h-10zM120,210h10v10h-10zM130,210h10v10h-10zM150,210h10v10h-10zM160,210h10v10h-10zM170,210h10v10h-10zM180,210h10v10h-10zM220,210h10v10h-10zM260,210h10v10h-10zM20,220h10v10h-10zM40,220h10v10h-10zM50,220h10v10h-10zM60,220h10v10h-10zM80,220h10v10h-10zM100,220h10v10h-10zM110,220h10v10h-10zM120,220h10v10h-10zM130,220h10v10h-10zM140,220h10v10h-10zM160,220h10v10h-10zM170,220h10v10h-10zM180,220h10v10h-10zM190,220h10v10h-10zM200,220h10v10h-10zM210,220h10v10h-10zM220,220h10v10h-10zM20,230h10v10h-10zM40,230h10v10h-10zM50,230h10v10h-10zM60,230h10v10h-10zM80,230h10v10h-10zM100,230h10v10h-10zM140,230h10v10h-10zM190,230h10v10h-10zM200,230h10v10h-10zM250,230h10v10h-10zM260,230h10v10h-10zM20,240h10v10h-10zM40,240h10v10h-10zM50,240h10v10h-10zM60,240h10v10h-10zM80,240h10v10h-10zM110,240h10v10h-10zM120,240h10v10h-10zM130,240h10v10h-10zM160,240h10v10h-10zM180,240h10v10h-10zM190,240h10v10h-10zM220,240h10v10h-10zM230,240h10v10h-10zM240,240h10v10h-10zM250,240h10v10h-10zM260,240h10v10h-10zM20,250h10v10h-10zM80,250h10v10h-10zM120,250h10v10h-10zM200,250h10v10h-10zM210,250h10v10h-10zM220,250h10v10h-10zM240,250h10v10h-10zM250,250h10v10h-10zM260,250h10v10h-10zM20,260h10v10h-10zM30,260h10v10h-10zM40,260h10v10h-10zM50,260h10v10h-10zM60,260h10v10h-10zM70,260h10v10h-10zM80,260h10v10h-10zM100,260h10v10h-10zM110,260h10v10h-10zM140,260h10v10h-10zM160,260h10v10h-10zM170,260h10v10h-10zM180,260h10v10h-10zM230,260h10v10h-10zM260,260h10v10h-10z" fill="#000C44"/></svg>