<svg xmlns="http://www.w3.org/2000/svg" viewBox="0 0 330 330" width="100%" height="100%"><rect width="330" height="330" fill="#FFFFFF"/><path d="M20,20h10v10h-10zM30,20h10v10h-10zM40,20h10v10h-10zM50,20h10v10h-10zM60,20h10v10h-10zM70,20h10v10h-10zM80,20h10v10h-10zM100,20h10v10h-10zM120,20h10v10h-10zM130,20h10v10h-10zM170,20h10v10h-10zM180,20h10v10h-10zM210,20h10v10h-10zM220,20h10v10h-10zM240,20h10v10h-10zM250,20h10v10h-10zM260,20h10v10h-10zM270,20h10v10h-10zM280,20h10v10h-10zM290,20h10v10h-10zM300,20h10v10h-10zM20,30h10v10h-10zM80,30h10v10h-10zM100,30h10v10h-10zM120,30h10v10h-10zM130,30h10v10h-10zM160,30h10v10h-10zM170,30h10v10h-10zM190,30h10v10h-10zM220,30h10v10h-10zM240,30h10v10h-10zM300,30h10v10h-10zM20,40h10v10h-10zM40,40h10v10h-10zM50,40h10v10h-10zM60,40h10v10h-10zM80,40h10v10h-10zM120,40h10v10h-10zM150,40h10v10h-10zM160,40h10v10h-10zM170,40h10v10h-10zM210,40h10v10h-10zM240,40h10v10h-10zM260,40h10v10h-10zM270,40h10v10h-10zM280,40h10v10h-10zM300,40h10v10h-10zM20,50h10v10h-10zM40,50h10v10h-10zM50,50h10v10h-10zM60,50h10v10h-10zM80,50h10v10h-10zM100,50h10v10h-10zM120,50h10v10h-10zM130,50h10v10h-10zM180,50h10v10h-10zM190,50h10v10h-10zM200,50h10v10h-10zM220,50h10v10h-10zM240,50h10v10h-10zM260,50h10v10h-10zM270,50h10v10h-10zM280,50h10v10h-10zM300,50h10v10h-10zM20,60h10v10h-10zM40,60h10v10h-10zM50,60h10v10h-10zM60,60h10v10h-10zM80,60h10v10h-10zM120,60h10v10h-10zM150,60h10v10h-10zM210,60h10v10h-10zM240,60h10v10h-10zM260,60h10v10h-10zM270,60h10v10h-10zM280,60h10v10h-10zM300,60h10v10h-10zM20,70h10v10h-10zM80,70h10v10h-10zM110,70h10v10h-10zM120,70h10v10h-10zM140,70h10v10h-10zM160,70h10v10h-10zM190,70h10v10h-10zM200,70h10v10h-10zM210,70h10v10h-10zM220,70h10v10h-10zM240,70h10v10h-10zM300,70h10v10h-10zM20,80h10v10h-10zM30,80h10v10h-10zM40,80h10v10h-10zM50,80h10v10h-10zM60,80h10v10h-10zM70,80h10v10h-10zM80,80h10v10h-10zM100,80h10v10h-10zM120,80h10v10h-10zM140,80h10v10h-10zM160,80h10v10h-10zM180,80h10v10h-10zM200,80h10v10h-10zM220,80h10v10h-10zM240,80h10v10h-10zM250,80h10v10h-10zM260,80h10v10h-10zM270,80h10v10h-10zM280,80h10v10h-10zM290,80h10v10h-10zM300,80h10v10h-10zM100,90h10v10h-10zM110,90h10v10h-10zM120,90h10v10h-10zM130,90h10v10h-10zM140,90h10v10h-10zM150,90h10v10h-10zM160,90h10v10h-10zM190,90h10v10h-10zM200,90h10v10h-10zM220,90h10v10h-10zM20,100h10v10h-10zM40,100h10v10h-10zM50,100h10v10h-10zM70,100h10v10h-10zM80,100h10v10h-10zM90,100h10v10h-10zM150,100h10v10h-10zM160,100h10v10h-10zM180,100h10v10h-10zM190,100h10v10h-10zM200,100h10v10h-10zM210,100h10v10h-10zM240,100h10v10h-10zM270,100h10v10h-10zM290,100h10v10h-10zM300,100h10v10h-10zM30,110h10v10h-10zM40,110h10v10h-10zM60,110h10v10h-10zM70,110h10v10h-10zM90,110h10v10h-10zM100,110h10v10h-10zM130,110h10v10h-10zM140,110h10v10h-10zM170,110h10v10h-10zM180,110h10v10h-10zM190,110h10v10h-10zM200,110h10v10h-10zM210,110h10v10h-10zM220,110h10v10h-10zM230,110h10v10h-10zM240,110h10v10h-10zM260,110h10v10h-10zM300,110h10v10h-10zM50,120h10v10h-10zM70,120h10v10h-10zM80,120h10v10h-10zM90,120h10v10h-10zM110,120h10v10h-10zM120,120h10v10h-10zM140,120h10v10h-10zM160,120h10v10h-10zM170,120h10v10h-10zM190,120h10v10h-10zM200,120h10v10h-10zM220,120h10v10h-10zM230,120h10v10h-10zM240,120h10v10h-10zM260,120h10v10h-10zM280,120h10v10h-10zM290,120h10v10h-10zM40,130h10v10h-10zM50,130h10v10h-10zM70,130h10v10h-10zM90,130h10v10h-10zM100,130h10v10h-10zM120,130h10v10h-10zM130,130h10v10h-10zM140,130h10v10h-10zM150,130h10v10h-10zM160,130h10v10h-10zM170,130h10v10h-10zM200,130h10v10h-10zM220,130h10v10h-10zM250,130h10v10h-10zM300,130h10v10h-10zM20,140h10v10h-10zM60,140h10v10h-10zM80,140h10v10h-10zM110,140h10v10h-10zM120,140h10v10h-10zM130,140h10v10h-10zM140,140h10v10h-10zM180,140h10v10h-10zM190,140h10v10h-10zM210,140h10v10h-10zM270,140h10v10h-10zM280,140h10v10h-10zM30,150h10v10h-10zM140,150h10v10h-10zM150,150h10v10h-10zM190,150h10v10h-10zM210,150h10v10h-10zM220,150h10v10h-10zM230,150h10v10h-10zM240,150h10v10h-10zM280,150h10v10h-10zM290,150h10v10h-10zM300,150h10v10h-10zM20,160h10v10h-10zM40,160h10v10h-10zM50,160h10v10h-10zM60,160h10v10h-10zM70,160h10v10h-10zM80,160h10v10h-10zM100,160h10v10h-10zM110,160h10v10h-10zM130,160h10v10h-10zM140,160h10v10h-10zM160,160h10v10h-10zM210,160h10v10h-10zM230,160h10v10h-10zM240,160h10v10h-10zM250,160h10v10h-10zM260,160h10v10h-10zM280,160h10v10h-10zM290,160h10v10h-10zM300,160h10v10h-10zM30,170h10v10h-10zM40,170h10v10h-10zM60,170h10v10h-10zM110,170h10v10h-10zM120,170h10v10h-10zM140,170h10v10h-10zM150,170h10v10h-10zM170,170h10v10h-10zM220,170h10v10h-10zM230,170h10v10h-10zM240,170h10v10h-10zM250,170h10v10h-10zM290,170h10v10h-10zM30,180h10v10h-10zM50,180h10v10h-10zM60,180h10v10h-10zM70,180h10v10h-10zM80,180h10v10h-10zM90,180h10v10h-10zM120,180h10v10h-10zM130,180h10v10h-10zM140,180h10v10h-10zM200,180h10v10h-10zM210,180h10v10h-10zM220,180h10v10h-10zM230,180h10v10h-10zM250,180h10v10h-10zM260,180h10v10h-10zM270,180h10v10h-10zM290,180h10v10h-10zM30,190h10v10h-10zM40,190h10v10h-10zM50,190h10v10h-10zM90,190h10v10h-10zM130,190h10v10h-10zM140,190h10v10h-10zM150,190h10v10h-10zM220,190h10v10h-10zM250,190h10v10h-10zM270,190h10v10h-10zM280,190h10v10h-10zM290,190h10v10h-10zM20,200h10v10h-10zM40,200h10v10h-10zM60,200h10v10h-10zM70,200h10v10h-10zM80,200h10v10h-10zM110,200h10v10h-10zM130,200h10v10h-10zM190,200h10v10h-10zM200,200h10v10h-10zM220,200h10v10h-10zM260,200h10v10h-10zM280,200h10v10h-10zM50,210h10v10h-10zM60,210h10v10h-10zM110,210h10v10h-10zM120,210h10v10h-10zM140,210h10v10h-10zM170,210h10v10h-10zM180,210h10v10h-10zM190,210h10v10h-10zM200,210h10v10h-10zM230,210h10v10h-10zM250,210h10v10h-10zM280,210h10v10h-10zM30,220h10v10h-10zM40,220h10v10h-10zM50,220h10v10h-10zM80,220h10v10h-10zM130,220h10v10h-10zM140,220h10v10h-10zM150,220h10v10h-10zM170,220h10v10h-10zM180,220h10v10h-10zM190,220h10v10h-10zM200,220h10v10h-10zM210,220h10v10h-10zM220,220h10v10h-10zM230,220h10v10h-10zM240,220h10v10h-10zM250,220h10v10h-10zM260,220h10v10h-10zM270,220h10v10h-10zM280,220h10v10h-10zM100,230h10v10h-10zM130,230h10v10h-10zM140,230h10v10h-10zM150,230h10v10h-10zM160,230h10v10h-10zM170,230h10v10h-10zM190,230h10v10h-10zM200,230h10v10h-10zM220,230h10v10h-10zM260,230h10v10h-10zM270,230h10v10h-10zM280,230h10v10h-10zM290,230h10v10h-10zM300,230h10v10h-10zM20,240h10v10h-10zM30,240h10v10h-10zM40,240h10v10h-10zM50,240h10v10h-10zM60,240h10v10h-10zM70,240h10v10h-10zM80,240h10v10h-10zM100,240h10v10h-10zM120,240h10v10h-10zM130,240h10v10h-10zM140,240h10v10h-10zM150,240h10v10h-10zM180,240h10v10h-10zM190,240h10v10h-10zM210,240h10v10h-10zM220,240h10v10h-10zM240,240h10v10h-10zM260,240h10v10h-10zM270,240h10v10h-10zM290,240h10v10h-10zM20,250h10v10h-10zM80,250h10v10h-10zM100,250h10v10h-10zM110,250h10v10h-10zM170,250h10v10h-10zM220,250h10v10h-10zM260,250h10v10h-10zM270,250h10v10h-10zM290,250h10v10h-10zM20,260h10v10h-10zM40,260h10v10h-10zM50,260h10v10h-10zM60,260h10v10h-10zM80,260h10v10h-10zM130,260h10v10h-10zM160,260h10v10h-10zM190,260h10v10h-10zM220,260h10v10h-10zM230,260h10v10h-10zM240,260h10v10h-10zM250,260h10v10h-10zM260,260h10v10h-10zM280,260h10v10h-10zM300,260h10v10h-10zM20,270h10v10h-10zM40,270h10v10h-10zM50,270h10v10h-10zM60,270h10v10h-10zM80,270h10v10h-10zM100,270h10v10h-10zM110,270h10v10h-10zM120,270h10v10h-10zM130,270h10v10h-10zM160,270h10v10h-10zM170,270h10v10h-10zM190,270h10v10h-10zM210,270h10v10h-10zM230,270h10v10h-10zM260,270h10v10h-10zM270,270h10v10h-10zM290,270h10v10h-10zM20,280h10v10h-10zM40,280h10v10h-10zM50,280h10v10h-10zM60,280h10v10h-10zM80,280h10v10h-10zM100,280h10v10h-10zM120,280h10v10h-10zM140,280h10v10h-10zM180,280h10v10h-10zM210,280h10v10h-10zM230,280h10v10h-10zM250,280h10v10h-10zM280,280h10v10h-10zM300,280h10v10h-10zM20,290h10v10h-10zM80,290h10v10h-10zM130,290h10v10h-10zM140,290h10v10h-10zM180,290h10v10h-10zM220,290h10v10h-10zM230,290h10v10h-10zM260,290h10v10h-10zM270,290h10v10h-10zM290,290h10v10h-10zM20,300h10v10h-10zM30,300h10v10h-10zM40,300h10v10h-10zM50,300h10v10h-10zM60,300h10v10h-10zM70,300h10v10h-10zM80,300h10v10h-10zM100,300h10v10h-10zM110,300h10v10h-10zM150,300h10v10h-10zM170,300h10v10h-10zM200,300h10v10h-10zM210,300h10v10h-10zM220,300h10v10h-10zM240,300h10v10h-10zM290,300h10v10h-10z" fill="#000C44"/></svg>